<svg xmlns="http://www.w3.org/2000/svg" version="1.1" xmlns:xlink="http://www.w3.org/1999/xlink" xmlns:svgjs="http://svgjs.dev/svgjs" width="2000" height="1500" viewBox="0 0 2000 1500"><rect width="2000" height="1500" fill='rgba(255, 0, 0, 0)'></rect><g transform="matrix(0.4444444444444444,0,0,0.4444444444444444,555.5556583333333,250)"><svg viewBox="0 0 320 360" data-background-color="#000000" preserveAspectRatio="xMidYMid meet" height="4000" width="4000" xmlns="http://www.w3.org/2000/svg" xmlns:xlink="http://www.w3.org/1999/xlink"><g id="tight-bounds" transform="matrix(1,0,0,1,-0.0000369999999634274,0)"><svg viewBox="0 0 320 360" height="200" width="200"><g><svg></svg></g><g><svg viewBox="0 0 320 360" height="360" width="320"><g><path transform="translate(-29.57346,-9.38389) scale(3.79147,3.79147)" d="M50 13.6c19.1 0 34.8 14.8 36.3 33.5h5.9c-0.3-4.7-1.4-9.2-3.2-13.5-2.1-5-5.2-9.6-9.1-13.4-3.9-3.9-8.4-6.9-13.4-9.1-5.3-2.2-10.8-3.4-16.5-3.4-5.7 0-11.2 1.1-16.5 3.3-5 2.1-9.6 5.2-13.4 9.1-3.9 3.9-6.9 8.4-9.1 13.4-1.8 4.3-2.9 8.9-3.2 13.5h5.9c1.5-18.6 17.2-33.4 36.3-33.4zM50 86.4c-19.1 0-34.8-14.8-36.3-33.5h-5.9c0.3 4.7 1.4 9.2 3.2 13.5 2.1 5 5.2 9.6 9.1 13.4 3.9 3.9 8.4 6.9 13.4 9.1 5.2 2.2 10.7 3.3 16.5 3.3 5.8 0 11.2-1.1 16.5-3.3 5-2.1 9.6-5.2 13.4-9.1 3.9-3.9 6.9-8.4 9.1-13.4 1.8-4.3 2.9-8.9 3.2-13.5h-5.9c-1.5 18.7-17.2 33.5-36.3 33.5z" fill="#89939e" fill-rule="nonzero" stroke="none" stroke-width="1" stroke-linecap="butt" stroke-linejoin="miter" stroke-miterlimit="10" stroke-dasharray="" stroke-dashoffset="0" font-family="none" font-weight="none" font-size="none" text-anchor="none" style="mix-blend-mode: normal" data-fill-palette-color="tertiary"></path></g><g transform="matrix(1,0,0,1,67.49503758261733,144.28725423256375)"><svg viewBox="0 0 185.00992483476534 71.4254915348725" height="71.4254915348725" width="185.00992483476534"><g><svg viewBox="0 0 185.00992483476534 71.4254915348725" height="71.4254915348725" width="185.00992483476534"><g><svg viewBox="0 0 185.00992483476534 71.4254915348725" height="71.4254915348725" width="185.00992483476534"><g id="textblocktransform"><svg viewBox="0 0 185.00992483476534 71.4254915348725" height="71.4254915348725" width="185.00992483476534" id="textblock"><g><svg viewBox="0 0 185.00992483476534 48.070018588235286" height="48.070018588235286" width="185.00992483476534"><g><svg><g></g><g></g></svg></g><g><svg><g><svg></svg></g><g></g></svg></g><g id="text-0"><svg viewBox="0 0 185.00992483476534 48.070018588235286" height="48.070018588235286" width="185.00992483476534"><g transform="matrix(1,0,0,1,0,0)"><svg width="80.61180083476535" viewBox="2.85 -35.1 59.699999999999996 35.60000000000001" height="48.070018588235286" data-palette-color="#0e312c"><path d="M6.8-17.15Q6.8-9.55 8.8-6.23 10.8-2.9 16.53-2.9 22.25-2.9 24.23-6.15 26.2-9.4 26.2-17.05 26.2-24.7 24.15-28.2 22.1-31.7 16.48-31.7 10.85-31.7 8.83-28.23 6.8-24.75 6.8-17.15ZM30.2-17.05Q30.2-7.8 27.25-3.65 24.3 0.5 16.53 0.5 8.75 0.5 5.8-3.75 2.85-8 2.85-17.13 2.85-26.25 5.85-30.68 8.85-35.1 16.5-35.1 24.15-35.1 27.18-30.7 30.2-26.3 30.2-17.05ZM41.1 0L37.25 0 37.25-34.6 44.45-34.6 57.7-3.4 58.75-3.4 58.75-34.6 62.55-34.6 62.55 0 55.5 0 42.05-31.2 41.1-31.2 41.1 0Z" opacity="1" transform="matrix(1,0,0,1,0,0)" fill="#0e312c" class="wordmark-text-0" data-fill-palette-color="primary"></path></svg></g><g><svg xmlns="http://www.w3.org/2000/svg" xmlns:xlink="http://www.w3.org/1999/xlink" version="1.1" x="94.21100083476534" y="0" viewBox="7 15 34 18" style="enable-background:new 0 0 48 48;" xml:space="preserve" height="48.070018588235286" width="90.79892399999999" class="icon-cg-0" data-fill-palette-color="accent" id="cg-0"><g fill="#0e312c" data-fill-palette-color="accent"><g fill="#0e312c" data-fill-palette-color="accent"><path d="M32 15H16c-5 0-9 4-9 9s4 9 9 9h16c5 0 9-4 9-9S37 15 32 15zM32 31H16c-3.9 0-7-3.1-7-7s3.1-7 7-7h16c3.9 0 7 3.1 7 7S35.9 31 32 31z" fill="#0e312c" data-fill-palette-color="accent"></path><path d="M16 19c-2.8 0-5 2.2-5 5s2.2 5 5 5 5-2.2 5-5S18.8 19 16 19zM16 27c-1.7 0-3-1.3-3-3s1.3-3 3-3 3 1.3 3 3S17.7 27 16 27z" fill="#0e312c" data-fill-palette-color="accent"></path></g></g></svg></g></svg></g></svg></g><g transform="matrix(1,0,0,1,35.33689564344018,59.41819629647152)"><svg viewBox="0 0 114.33613354788498 12.00729523840099" height="12.00729523840099" width="114.33613354788498"><g transform="matrix(1,0,0,1,0,0)"><svg width="114.33613354788498" viewBox="5.35 -42.3 509.65999999999997 54" height="12.00729523840099" data-palette-color="#dedede"><g class="slogan-text-1" data-fill-palette-color="secondary" id="text-1"><path d="M28.3-33.55L10.2-33.55 10.2-20.55 25.8-20.55 25.8-16.2 10.2-16.2 10.2 0 5.35 0 5.35-37.9 28.3-37.9 28.3-33.55ZM48.2-28.25L49.35-28.25 49.35-23.85 48.2-23.85Q43.9-23.85 39.85-20.4L39.85-20.4 39.85 0 35.15 0 35.15-27.65 39.85-27.65 39.85-24.55Q43.95-28.25 48.2-28.25L48.2-28.25ZM67.3 0.85Q62.9 0.85 59.82-1.07 56.75-3 55.2-6.33 53.65-9.65 53.65-13.8L53.65-13.8Q53.65-17.95 55.2-21.28 56.75-24.6 59.82-26.53 62.9-28.45 67.3-28.45L67.3-28.45Q71.7-28.45 74.77-26.53 77.84-24.6 79.37-21.28 80.9-17.95 80.9-13.8L80.9-13.8Q80.9-9.65 79.37-6.33 77.84-3 74.77-1.07 71.7 0.85 67.3 0.85L67.3 0.85ZM67.3-3.4Q71.45-3.4 73.72-6.3 76-9.2 76-13.8L76-13.8Q76-18.4 73.72-21.28 71.45-24.15 67.3-24.15L67.3-24.15Q63.15-24.15 60.85-21.28 58.55-18.4 58.55-13.8L58.55-13.8Q58.55-9.2 60.85-6.3 63.15-3.4 67.3-3.4L67.3-3.4ZM101.34-28.25Q106.44-28.25 108.92-25.55 111.39-22.85 111.39-16.65L111.39-16.65 111.39 0 106.69 0 106.69-16.65Q106.69-20.55 105.37-22.2 104.04-23.85 100.69-23.85L100.69-23.85Q96.79-23.85 92.89-20.45L92.89-20.45 92.89 0 88.19 0 88.19-27.65 92.89-27.65 92.89-24.7Q96.99-28.25 101.34-28.25L101.34-28.25ZM132.19-22.95L125.79-22.95 125.79-7.15Q125.79-5.15 126.42-4.42 127.04-3.7 128.74-3.7L128.74-3.7Q130.24-3.7 131.94-4.1L131.94-4.1 131.94 0.15Q129.69 0.65 127.94 0.65L127.94 0.65Q124.14 0.65 122.62-0.9 121.09-2.45 121.09-6.1L121.09-6.1 121.09-22.95 117.49-22.95 117.49-27.3 121.09-27.3 121.09-36.8 125.79-36.8 125.79-27.3 132.19-27.3 132.19-22.95ZM138.29-12.6L138.29-17 152.99-17 152.99-12.6 138.29-12.6ZM167.19-4.2L185.54-4.2 185.54 0 162.34 0 162.34-37.9 185.29-37.9 185.29-33.7 167.19-33.7 167.19-21.15 182.79-21.15 182.79-16.95 167.19-16.95 167.19-4.2ZM206.18-28.25Q211.28-28.25 213.76-25.55 216.23-22.85 216.23-16.65L216.23-16.65 216.23 0 211.53 0 211.53-16.65Q211.53-20.55 210.21-22.2 208.88-23.85 205.53-23.85L205.53-23.85Q201.63-23.85 197.73-20.45L197.73-20.45 197.73 0 193.03 0 193.03-27.65 197.73-27.65 197.73-24.7Q201.83-28.25 206.18-28.25L206.18-28.25ZM243.58-42.3L248.28-42.3 248.28 0 243.58 0 243.58-2.5Q239.63 0.85 235.58 0.85L235.58 0.85Q229.98 0.85 226.63-2.9 223.28-6.65 223.28-13.8L223.28-13.8Q223.28-20.95 226.63-24.7 229.98-28.45 235.58-28.45L235.58-28.45Q239.58-28.45 243.58-25.05L243.58-25.05 243.58-42.3ZM236.18-3.5Q239.78-3.5 243.58-6.6L243.58-6.6 243.58-20.95Q239.88-24.05 236.18-24.05L236.18-24.05Q232.23-24.05 230.21-21.45 228.18-18.85 228.18-13.8L228.18-13.8Q228.18-8.75 230.21-6.13 232.23-3.5 236.18-3.5L236.18-3.5Z" fill="#0e312c" data-fill-palette-color="primary"></path><path d="M277.23-37.9Q286.58-37.9 291.35-33.08 296.13-28.25 296.13-18.9L296.13-18.9Q296.13-9.5 291.38-4.75 286.63 0 277.23 0L277.23 0 264.63 0 264.63-37.9 277.23-37.9ZM291.13-19.05Q291.13-26.55 287.63-30.1 284.13-33.65 277.23-33.65L277.23-33.65 269.48-33.65 269.48-4.25 277.23-4.25Q284.18-4.25 287.65-7.8 291.13-11.35 291.13-19.05L291.13-19.05ZM306.78-13.45Q306.88-8.85 309.08-6.1 311.28-3.35 316.08-3.35L316.08-3.35Q319.73-3.35 324.08-5.4L324.08-5.4 325.53-1.5Q320.98 0.85 315.68 0.85L315.68 0.85Q311.28 0.85 308.18-1 305.08-2.85 303.48-6.15 301.88-9.45 301.88-13.85L301.88-13.85Q301.88-18.5 303.55-21.78 305.23-25.05 308.08-26.75 310.93-28.45 314.48-28.45L314.48-28.45Q319.93-28.45 323.03-25.05 326.13-21.65 326.13-15.3L326.13-15.3 326.13-13.45 306.78-13.45ZM314.48-24.25Q308.28-24.25 307.08-17.4L307.08-17.4 321.18-17.4Q320.93-20.9 319.28-22.58 317.63-24.25 314.48-24.25L314.48-24.25ZM350.82-27.65L355.72-27.65 345.27 0.45 339.87 0.45 329.32-27.65 334.22-27.65 342.57-4.75 350.82-27.65ZM364.42-13.45Q364.52-8.85 366.72-6.1 368.92-3.35 373.72-3.35L373.72-3.35Q377.37-3.35 381.72-5.4L381.72-5.4 383.17-1.5Q378.62 0.85 373.32 0.85L373.32 0.85Q368.92 0.85 365.82-1 362.72-2.85 361.12-6.15 359.52-9.45 359.52-13.85L359.52-13.85Q359.52-18.5 361.2-21.78 362.87-25.05 365.72-26.75 368.57-28.45 372.12-28.45L372.12-28.45Q377.57-28.45 380.67-25.05 383.77-21.65 383.77-15.3L383.77-15.3 383.77-13.45 364.42-13.45ZM372.12-24.25Q365.92-24.25 364.72-17.4L364.72-17.4 378.82-17.4Q378.57-20.9 376.92-22.58 375.27-24.25 372.12-24.25L372.12-24.25ZM397.52 0.65Q393.77 0.65 392.12-0.85 390.47-2.35 390.47-5.9L390.47-5.9 390.47-42.3 395.17-42.3 395.17-7.15Q395.17-5.15 395.79-4.42 396.42-3.7 398.17-3.7L398.17-3.7Q399.57-3.7 400.67-4L400.67-4 400.67 0.3Q398.67 0.65 397.52 0.65L397.52 0.65ZM418.37 0.85Q413.97 0.85 410.89-1.07 407.82-3 406.27-6.33 404.72-9.65 404.72-13.8L404.72-13.8Q404.72-17.95 406.27-21.28 407.82-24.6 410.89-26.53 413.97-28.45 418.37-28.45L418.37-28.45Q422.77-28.45 425.84-26.53 428.92-24.6 430.44-21.28 431.97-17.95 431.97-13.8L431.97-13.8Q431.97-9.65 430.44-6.33 428.92-3 425.84-1.07 422.77 0.85 418.37 0.85L418.37 0.85ZM418.37-3.4Q422.52-3.4 424.79-6.3 427.07-9.2 427.07-13.8L427.07-13.8Q427.07-18.4 424.79-21.28 422.52-24.15 418.37-24.15L418.37-24.15Q414.22-24.15 411.92-21.28 409.62-18.4 409.62-13.8L409.62-13.8Q409.62-9.2 411.92-6.3 414.22-3.4 418.37-3.4L418.37-3.4ZM451.96-28.45Q457.56-28.45 460.89-24.7 464.21-20.95 464.21-13.8L464.21-13.8Q464.21-6.65 460.89-2.9 457.56 0.85 451.96 0.85L451.96 0.85Q447.91 0.85 443.96-2.5L443.96-2.5 443.96 11.7 439.26 11.7 439.26-27.65 443.96-27.65 443.96-25.05Q447.96-28.45 451.96-28.45L451.96-28.45ZM451.31-3.5Q455.26-3.5 457.31-6.13 459.36-8.75 459.36-13.8L459.36-13.8Q459.36-18.85 457.31-21.45 455.26-24.05 451.31-24.05L451.31-24.05Q447.56-24.05 443.96-20.95L443.96-20.95 443.96-6.6Q447.66-3.5 451.31-3.5L451.31-3.5ZM474.76-13.45Q474.86-8.85 477.06-6.1 479.26-3.35 484.06-3.35L484.06-3.35Q487.71-3.35 492.06-5.4L492.06-5.4 493.51-1.5Q488.96 0.85 483.66 0.85L483.66 0.85Q479.26 0.85 476.16-1 473.06-2.85 471.46-6.15 469.86-9.45 469.86-13.85L469.86-13.85Q469.86-18.5 471.54-21.78 473.21-25.05 476.06-26.75 478.91-28.45 482.46-28.45L482.46-28.45Q487.91-28.45 491.01-25.05 494.11-21.65 494.11-15.3L494.11-15.3 494.11-13.45 474.76-13.45ZM482.46-24.25Q476.26-24.25 475.06-17.4L475.06-17.4 489.16-17.4Q488.91-20.9 487.26-22.58 485.61-24.25 482.46-24.25L482.46-24.25ZM513.86-28.25L515.01-28.25 515.01-23.85 513.86-23.85Q509.56-23.85 505.51-20.4L505.51-20.4 505.51 0 500.81 0 500.81-27.65 505.51-27.65 505.51-24.55Q509.61-28.25 513.86-28.25L513.86-28.25Z" fill="#dedede" data-fill-palette-color="secondary"></path></g></svg></g></svg></g></svg></g></svg></g></svg></g></svg></g></svg></g><defs></defs></svg><rect width="320" height="360" fill="none" stroke="none" visibility="hidden"></rect></g></svg></g></svg>